<mxfile host="app.diagrams.net" agent="Mozilla/5.0 (Windows NT 10.0; Win64; x64) AppleWebKit/537.36 (KHTML, like Gecko) Chrome/128.0.0.0 Safari/537.36" version="24.7.7">
  <diagram name="Page-1" id="22gEBOp4RSkwIFv86-oA">
    <mxGraphModel dx="1120" dy="434" grid="1" gridSize="10" guides="1" tooltips="1" connect="1" arrows="1" fold="1" page="1" pageScale="1" pageWidth="850" pageHeight="1100" math="0" shadow="0">
      <root>
        <mxCell id="0" />
        <mxCell id="1" parent="0" />
        <mxCell id="RyyqLo3WR2tfJAphv2zM-3" value="&lt;font style=&quot;font-size: 14px;&quot;&gt;email&lt;/font&gt;" style="ellipse;whiteSpace=wrap;html=1;aspect=fixed;" vertex="1" parent="1">
          <mxGeometry x="440" y="20" width="40" height="40" as="geometry" />
        </mxCell>
        <mxCell id="RyyqLo3WR2tfJAphv2zM-4" value="&lt;font style=&quot;font-size: 14px;&quot;&gt;phone&lt;/font&gt;" style="ellipse;whiteSpace=wrap;html=1;aspect=fixed;" vertex="1" parent="1">
          <mxGeometry x="800" y="120" width="50" height="50" as="geometry" />
        </mxCell>
        <mxCell id="RyyqLo3WR2tfJAphv2zM-57" style="edgeStyle=none;rounded=0;orthogonalLoop=1;jettySize=auto;html=1;exitX=1;exitY=0.5;exitDx=0;exitDy=0;entryX=0;entryY=0.5;entryDx=0;entryDy=0;" edge="1" parent="1" source="RyyqLo3WR2tfJAphv2zM-5" target="RyyqLo3WR2tfJAphv2zM-55">
          <mxGeometry relative="1" as="geometry" />
        </mxCell>
        <mxCell id="RyyqLo3WR2tfJAphv2zM-5" value="&lt;font style=&quot;font-size: 18px;&quot;&gt;Doctor&lt;/font&gt;" style="rounded=0;whiteSpace=wrap;html=1;" vertex="1" parent="1">
          <mxGeometry x="490" y="290" width="120" height="40" as="geometry" />
        </mxCell>
        <mxCell id="RyyqLo3WR2tfJAphv2zM-11" style="edgeStyle=none;rounded=0;orthogonalLoop=1;jettySize=auto;html=1;exitX=0.25;exitY=0;exitDx=0;exitDy=0;entryX=1;entryY=1;entryDx=0;entryDy=0;" edge="1" parent="1" source="RyyqLo3WR2tfJAphv2zM-6" target="RyyqLo3WR2tfJAphv2zM-3">
          <mxGeometry relative="1" as="geometry" />
        </mxCell>
        <mxCell id="RyyqLo3WR2tfJAphv2zM-13" style="edgeStyle=none;rounded=0;orthogonalLoop=1;jettySize=auto;html=1;exitX=0.75;exitY=0;exitDx=0;exitDy=0;entryX=0.5;entryY=1;entryDx=0;entryDy=0;" edge="1" parent="1" source="RyyqLo3WR2tfJAphv2zM-6">
          <mxGeometry relative="1" as="geometry">
            <mxPoint x="625" y="80" as="targetPoint" />
          </mxGeometry>
        </mxCell>
        <mxCell id="RyyqLo3WR2tfJAphv2zM-14" style="edgeStyle=none;rounded=0;orthogonalLoop=1;jettySize=auto;html=1;exitX=1;exitY=0;exitDx=0;exitDy=0;entryX=0.06;entryY=0.75;entryDx=0;entryDy=0;entryPerimeter=0;" edge="1" parent="1" source="RyyqLo3WR2tfJAphv2zM-6" target="RyyqLo3WR2tfJAphv2zM-40">
          <mxGeometry relative="1" as="geometry">
            <mxPoint x="683.1801948466052" y="106.81980515339478" as="targetPoint" />
          </mxGeometry>
        </mxCell>
        <mxCell id="RyyqLo3WR2tfJAphv2zM-15" style="edgeStyle=none;rounded=0;orthogonalLoop=1;jettySize=auto;html=1;exitX=1;exitY=0.5;exitDx=0;exitDy=0;entryX=0;entryY=0.5;entryDx=0;entryDy=0;" edge="1" parent="1" source="RyyqLo3WR2tfJAphv2zM-6" target="RyyqLo3WR2tfJAphv2zM-4">
          <mxGeometry relative="1" as="geometry" />
        </mxCell>
        <mxCell id="RyyqLo3WR2tfJAphv2zM-43" style="edgeStyle=none;rounded=0;orthogonalLoop=1;jettySize=auto;html=1;exitX=1;exitY=0.25;exitDx=0;exitDy=0;entryX=0;entryY=1;entryDx=0;entryDy=0;" edge="1" parent="1" source="RyyqLo3WR2tfJAphv2zM-6" target="RyyqLo3WR2tfJAphv2zM-34">
          <mxGeometry relative="1" as="geometry" />
        </mxCell>
        <mxCell id="RyyqLo3WR2tfJAphv2zM-6" value="&lt;font style=&quot;font-size: 18px;&quot;&gt;Patient&lt;/font&gt;" style="rounded=0;whiteSpace=wrap;html=1;" vertex="1" parent="1">
          <mxGeometry x="530" y="140" width="120" height="40" as="geometry" />
        </mxCell>
        <mxCell id="RyyqLo3WR2tfJAphv2zM-59" style="edgeStyle=none;rounded=0;orthogonalLoop=1;jettySize=auto;html=1;exitX=0.25;exitY=0;exitDx=0;exitDy=0;entryX=0.5;entryY=1;entryDx=0;entryDy=0;" edge="1" parent="1" source="RyyqLo3WR2tfJAphv2zM-7" target="RyyqLo3WR2tfJAphv2zM-58">
          <mxGeometry relative="1" as="geometry" />
        </mxCell>
        <mxCell id="RyyqLo3WR2tfJAphv2zM-63" style="edgeStyle=none;rounded=0;orthogonalLoop=1;jettySize=auto;html=1;exitX=0.5;exitY=1;exitDx=0;exitDy=0;entryX=0.5;entryY=0;entryDx=0;entryDy=0;" edge="1" parent="1" source="RyyqLo3WR2tfJAphv2zM-7" target="RyyqLo3WR2tfJAphv2zM-62">
          <mxGeometry relative="1" as="geometry" />
        </mxCell>
        <mxCell id="RyyqLo3WR2tfJAphv2zM-7" value="&lt;span style=&quot;font-size: 18px;&quot;&gt;Drugs&lt;/span&gt;" style="rounded=0;whiteSpace=wrap;html=1;" vertex="1" parent="1">
          <mxGeometry x="60" y="110" width="120" height="40" as="geometry" />
        </mxCell>
        <mxCell id="RyyqLo3WR2tfJAphv2zM-8" value="&lt;font style=&quot;font-size: 18px;&quot;&gt;gives&lt;/font&gt;" style="rhombus;whiteSpace=wrap;html=1;" vertex="1" parent="1">
          <mxGeometry x="320" y="200" width="80" height="80" as="geometry" />
        </mxCell>
        <mxCell id="RyyqLo3WR2tfJAphv2zM-64" style="edgeStyle=none;rounded=0;orthogonalLoop=1;jettySize=auto;html=1;exitX=0.5;exitY=0;exitDx=0;exitDy=0;entryX=0.5;entryY=1;entryDx=0;entryDy=0;" edge="1" parent="1" source="RyyqLo3WR2tfJAphv2zM-9" target="RyyqLo3WR2tfJAphv2zM-62">
          <mxGeometry relative="1" as="geometry" />
        </mxCell>
        <mxCell id="RyyqLo3WR2tfJAphv2zM-9" value="&lt;font style=&quot;font-size: 18px;&quot;&gt;company&lt;/font&gt;" style="rounded=0;whiteSpace=wrap;html=1;" vertex="1" parent="1">
          <mxGeometry x="60" y="280" width="120" height="40" as="geometry" />
        </mxCell>
        <mxCell id="RyyqLo3WR2tfJAphv2zM-10" value="&lt;font style=&quot;font-size: 14px;&quot;&gt;address&lt;/font&gt;" style="ellipse;whiteSpace=wrap;html=1;aspect=fixed;" vertex="1" parent="1">
          <mxGeometry x="510" y="10" width="60" height="60" as="geometry" />
        </mxCell>
        <mxCell id="RyyqLo3WR2tfJAphv2zM-12" style="edgeStyle=none;rounded=0;orthogonalLoop=1;jettySize=auto;html=1;exitX=0.5;exitY=0;exitDx=0;exitDy=0;entryX=0.7;entryY=0.94;entryDx=0;entryDy=0;entryPerimeter=0;" edge="1" parent="1" source="RyyqLo3WR2tfJAphv2zM-6" target="RyyqLo3WR2tfJAphv2zM-10">
          <mxGeometry relative="1" as="geometry" />
        </mxCell>
        <mxCell id="RyyqLo3WR2tfJAphv2zM-22" style="edgeStyle=none;rounded=0;orthogonalLoop=1;jettySize=auto;html=1;exitX=0;exitY=0;exitDx=0;exitDy=0;entryX=1;entryY=0.25;entryDx=0;entryDy=0;" edge="1" parent="1" source="RyyqLo3WR2tfJAphv2zM-19" target="RyyqLo3WR2tfJAphv2zM-5">
          <mxGeometry relative="1" as="geometry" />
        </mxCell>
        <mxCell id="RyyqLo3WR2tfJAphv2zM-19" value="&lt;font style=&quot;font-size: 14px;&quot;&gt;email&lt;/font&gt;" style="ellipse;whiteSpace=wrap;html=1;aspect=fixed;" vertex="1" parent="1">
          <mxGeometry x="670" y="240" width="40" height="40" as="geometry" />
        </mxCell>
        <mxCell id="RyyqLo3WR2tfJAphv2zM-24" style="edgeStyle=none;rounded=0;orthogonalLoop=1;jettySize=auto;html=1;exitX=0;exitY=0;exitDx=0;exitDy=0;entryX=0.75;entryY=1;entryDx=0;entryDy=0;" edge="1" parent="1" target="RyyqLo3WR2tfJAphv2zM-5">
          <mxGeometry relative="1" as="geometry">
            <mxPoint x="640.2512626584708" y="360.25126265847075" as="sourcePoint" />
          </mxGeometry>
        </mxCell>
        <mxCell id="RyyqLo3WR2tfJAphv2zM-23" style="edgeStyle=none;rounded=0;orthogonalLoop=1;jettySize=auto;html=1;exitX=0;exitY=0.5;exitDx=0;exitDy=0;entryX=1;entryY=0.75;entryDx=0;entryDy=0;" edge="1" parent="1" source="RyyqLo3WR2tfJAphv2zM-21" target="RyyqLo3WR2tfJAphv2zM-5">
          <mxGeometry relative="1" as="geometry" />
        </mxCell>
        <mxCell id="RyyqLo3WR2tfJAphv2zM-21" value="&lt;font style=&quot;font-size: 14px;&quot;&gt;phone&lt;/font&gt;" style="ellipse;whiteSpace=wrap;html=1;aspect=fixed;" vertex="1" parent="1">
          <mxGeometry x="710" y="320" width="50" height="50" as="geometry" />
        </mxCell>
        <mxCell id="RyyqLo3WR2tfJAphv2zM-25" style="edgeStyle=none;rounded=0;orthogonalLoop=1;jettySize=auto;html=1;exitX=0.5;exitY=0;exitDx=0;exitDy=0;entryX=0.375;entryY=1.075;entryDx=0;entryDy=0;entryPerimeter=0;" edge="1" parent="1" target="RyyqLo3WR2tfJAphv2zM-5">
          <mxGeometry relative="1" as="geometry">
            <mxPoint x="555" y="350" as="sourcePoint" />
          </mxGeometry>
        </mxCell>
        <mxCell id="RyyqLo3WR2tfJAphv2zM-26" style="edgeStyle=none;rounded=0;orthogonalLoop=1;jettySize=auto;html=1;exitX=0.5;exitY=0;exitDx=0;exitDy=0;entryX=0.075;entryY=0.925;entryDx=0;entryDy=0;entryPerimeter=0;" edge="1" parent="1" target="RyyqLo3WR2tfJAphv2zM-5">
          <mxGeometry relative="1" as="geometry">
            <mxPoint x="510" y="410" as="sourcePoint" />
          </mxGeometry>
        </mxCell>
        <mxCell id="RyyqLo3WR2tfJAphv2zM-27" value="&lt;font style=&quot;font-size: 14px;&quot;&gt;phone&lt;/font&gt;" style="ellipse;whiteSpace=wrap;html=1;aspect=fixed;" vertex="1" parent="1">
          <mxGeometry x="20" y="390" width="50" height="50" as="geometry" />
        </mxCell>
        <mxCell id="RyyqLo3WR2tfJAphv2zM-28" value="&lt;font style=&quot;font-size: 14px;&quot;&gt;address&lt;/font&gt;" style="ellipse;whiteSpace=wrap;html=1;aspect=fixed;" vertex="1" parent="1">
          <mxGeometry x="80" y="410" width="50" height="50" as="geometry" />
        </mxCell>
        <mxCell id="RyyqLo3WR2tfJAphv2zM-45" style="edgeStyle=none;rounded=0;orthogonalLoop=1;jettySize=auto;html=1;exitX=0.5;exitY=0;exitDx=0;exitDy=0;entryX=0;entryY=0.75;entryDx=0;entryDy=0;" edge="1" parent="1" source="RyyqLo3WR2tfJAphv2zM-29" target="RyyqLo3WR2tfJAphv2zM-9">
          <mxGeometry relative="1" as="geometry" />
        </mxCell>
        <mxCell id="RyyqLo3WR2tfJAphv2zM-29" value="&lt;font style=&quot;font-size: 14px;&quot;&gt;email&lt;/font&gt;" style="ellipse;whiteSpace=wrap;html=1;aspect=fixed;" vertex="1" parent="1">
          <mxGeometry x="10" y="340" width="40" height="40" as="geometry" />
        </mxCell>
        <mxCell id="RyyqLo3WR2tfJAphv2zM-34" value="&lt;font style=&quot;font-size: 12px;&quot;&gt;medicare_card_num&lt;/font&gt;" style="ellipse;whiteSpace=wrap;html=1;" vertex="1" parent="1">
          <mxGeometry x="680" y="40" width="120" height="40" as="geometry" />
        </mxCell>
        <mxCell id="RyyqLo3WR2tfJAphv2zM-35" value="&lt;span style=&quot;font-size: 14px;&quot;&gt;doctor_name&lt;/span&gt;" style="ellipse;whiteSpace=wrap;html=1;" vertex="1" parent="1">
          <mxGeometry x="515" y="350" width="95" height="50" as="geometry" />
        </mxCell>
        <mxCell id="RyyqLo3WR2tfJAphv2zM-38" value="&lt;span style=&quot;font-size: 14px;&quot;&gt;doctor_id&lt;/span&gt;" style="ellipse;whiteSpace=wrap;html=1;" vertex="1" parent="1">
          <mxGeometry x="610" y="360" width="90" height="40" as="geometry" />
        </mxCell>
        <mxCell id="RyyqLo3WR2tfJAphv2zM-40" value="&lt;font style=&quot;font-size: 14px;&quot;&gt;patient_name&lt;/font&gt;" style="ellipse;whiteSpace=wrap;html=1;" vertex="1" parent="1">
          <mxGeometry x="710" y="90" width="100" height="40" as="geometry" />
        </mxCell>
        <mxCell id="RyyqLo3WR2tfJAphv2zM-41" value="&lt;font style=&quot;font-size: 14px;&quot;&gt;patient_id&lt;/font&gt;" style="ellipse;whiteSpace=wrap;html=1;" vertex="1" parent="1">
          <mxGeometry x="580" y="40" width="90" height="40" as="geometry" />
        </mxCell>
        <mxCell id="RyyqLo3WR2tfJAphv2zM-42" style="edgeStyle=none;rounded=0;orthogonalLoop=1;jettySize=auto;html=1;entryX=0;entryY=0.5;entryDx=0;entryDy=0;" edge="1" parent="1" source="RyyqLo3WR2tfJAphv2zM-40" target="RyyqLo3WR2tfJAphv2zM-40">
          <mxGeometry relative="1" as="geometry" />
        </mxCell>
        <mxCell id="RyyqLo3WR2tfJAphv2zM-44" value="&lt;font style=&quot;font-size: 14px;&quot;&gt;company_name&lt;/font&gt;" style="ellipse;whiteSpace=wrap;html=1;" vertex="1" parent="1">
          <mxGeometry x="150" y="390" width="110" height="40" as="geometry" />
        </mxCell>
        <mxCell id="RyyqLo3WR2tfJAphv2zM-46" style="edgeStyle=none;rounded=0;orthogonalLoop=1;jettySize=auto;html=1;exitX=1;exitY=0;exitDx=0;exitDy=0;entryX=0.125;entryY=1.025;entryDx=0;entryDy=0;entryPerimeter=0;" edge="1" parent="1" source="RyyqLo3WR2tfJAphv2zM-27" target="RyyqLo3WR2tfJAphv2zM-9">
          <mxGeometry relative="1" as="geometry" />
        </mxCell>
        <mxCell id="RyyqLo3WR2tfJAphv2zM-47" style="edgeStyle=none;rounded=0;orthogonalLoop=1;jettySize=auto;html=1;exitX=0.5;exitY=0;exitDx=0;exitDy=0;entryX=0.375;entryY=0.975;entryDx=0;entryDy=0;entryPerimeter=0;" edge="1" parent="1" source="RyyqLo3WR2tfJAphv2zM-28" target="RyyqLo3WR2tfJAphv2zM-9">
          <mxGeometry relative="1" as="geometry" />
        </mxCell>
        <mxCell id="RyyqLo3WR2tfJAphv2zM-48" style="edgeStyle=none;rounded=0;orthogonalLoop=1;jettySize=auto;html=1;exitX=0;exitY=0;exitDx=0;exitDy=0;entryX=0.633;entryY=0.95;entryDx=0;entryDy=0;entryPerimeter=0;" edge="1" parent="1" source="RyyqLo3WR2tfJAphv2zM-44" target="RyyqLo3WR2tfJAphv2zM-9">
          <mxGeometry relative="1" as="geometry" />
        </mxCell>
        <mxCell id="RyyqLo3WR2tfJAphv2zM-53" style="edgeStyle=none;rounded=0;orthogonalLoop=1;jettySize=auto;html=1;exitX=0;exitY=0.5;exitDx=0;exitDy=0;entryX=1;entryY=1;entryDx=0;entryDy=0;" edge="1" parent="1" source="RyyqLo3WR2tfJAphv2zM-49" target="RyyqLo3WR2tfJAphv2zM-6">
          <mxGeometry relative="1" as="geometry" />
        </mxCell>
        <mxCell id="RyyqLo3WR2tfJAphv2zM-49" value="&lt;font style=&quot;font-size: 14px;&quot;&gt;age&lt;/font&gt;" style="ellipse;whiteSpace=wrap;html=1;" vertex="1" parent="1">
          <mxGeometry x="800" y="180" width="70" height="40" as="geometry" />
        </mxCell>
        <mxCell id="RyyqLo3WR2tfJAphv2zM-54" value="&lt;span style=&quot;font-size: 14px;&quot;&gt;specialty&lt;/span&gt;" style="ellipse;whiteSpace=wrap;html=1;" vertex="1" parent="1">
          <mxGeometry x="470" y="410" width="95" height="40" as="geometry" />
        </mxCell>
        <mxCell id="RyyqLo3WR2tfJAphv2zM-55" value="&lt;span style=&quot;font-size: 14px;&quot;&gt;years_experience&lt;/span&gt;" style="ellipse;whiteSpace=wrap;html=1;" vertex="1" parent="1">
          <mxGeometry x="720" y="270" width="145" height="40" as="geometry" />
        </mxCell>
        <mxCell id="RyyqLo3WR2tfJAphv2zM-58" value="&lt;font style=&quot;font-size: 14px;&quot;&gt;trade_name&lt;/font&gt;" style="ellipse;whiteSpace=wrap;html=1;" vertex="1" parent="1">
          <mxGeometry x="10" y="40" width="90" height="40" as="geometry" />
        </mxCell>
        <mxCell id="RyyqLo3WR2tfJAphv2zM-60" value="&lt;font style=&quot;font-size: 14px;&quot;&gt;strength&lt;/font&gt;" style="ellipse;whiteSpace=wrap;html=1;" vertex="1" parent="1">
          <mxGeometry x="120" y="40" width="90" height="40" as="geometry" />
        </mxCell>
        <mxCell id="RyyqLo3WR2tfJAphv2zM-61" style="edgeStyle=none;rounded=0;orthogonalLoop=1;jettySize=auto;html=1;exitX=0.75;exitY=0;exitDx=0;exitDy=0;entryX=0.356;entryY=0.95;entryDx=0;entryDy=0;entryPerimeter=0;" edge="1" parent="1" source="RyyqLo3WR2tfJAphv2zM-7" target="RyyqLo3WR2tfJAphv2zM-60">
          <mxGeometry relative="1" as="geometry" />
        </mxCell>
        <mxCell id="RyyqLo3WR2tfJAphv2zM-62" value="&lt;font style=&quot;font-size: 18px;&quot;&gt;have&lt;/font&gt;" style="rhombus;whiteSpace=wrap;html=1;" vertex="1" parent="1">
          <mxGeometry x="80" y="180" width="80" height="70" as="geometry" />
        </mxCell>
        <mxCell id="RyyqLo3WR2tfJAphv2zM-65" value="M" style="text;strokeColor=none;align=center;fillColor=none;html=1;verticalAlign=middle;whiteSpace=wrap;rounded=0;" vertex="1" parent="1">
          <mxGeometry x="120" y="150" width="30" height="30" as="geometry" />
        </mxCell>
        <mxCell id="RyyqLo3WR2tfJAphv2zM-66" value="1" style="text;strokeColor=none;align=center;fillColor=none;html=1;verticalAlign=middle;whiteSpace=wrap;rounded=0;" vertex="1" parent="1">
          <mxGeometry x="120" y="250" width="30" height="30" as="geometry" />
        </mxCell>
      </root>
    </mxGraphModel>
  </diagram>
</mxfile>
